{"asset":{"version":"2.0","generator":"Blockbench 4.12.2 glTF exporter"},"scenes":[{"nodes":[6],"name":"blockbench_export"}],"scene":0,"nodes":[{"translation":[0.03125,0,0],"name":"cuboid","mesh":0},{"rotation":[0,0,-0.7071067811865475,0.7071067811865476],"translation":[-0.10625000000000004,0.13750000000000007,0],"name":"cuboid","mesh":1},{"translation":[0,0.0625,0],"name":"cuboid","mesh":2},{"rotation":[0,0,0.7071067811865475,0.7071067811865476],"translation":[0.10625000000000004,0.13750000000000007,0],"name":"cuboid","mesh":3},{"translation":[-0.03125,0,0],"name":"cuboid","mesh":4},{"translation":[0,0.16249999999999998,0],"name":"cuboid","mesh":5},{"children":[0,1,2,3,4,5]}],"bufferViews":[{"buffer":0,"byteOffset":0,"byteLength":288,"target":34962,"byteStride":12},{"buffer":0,"byteOffset":288,"byteLength":288,"target":34962,"byteStride":12},{"buffer":0,"byteOffset":576,"byteLength":192,"target":34962,"byteStride":8},{"buffer":0,"byteOffset":768,"byteLength":72,"target":34963},{"buffer":0,"byteOffset":840,"byteLength":480,"target":34962,"byteStride":12},{"buffer":0,"byteOffset":1320,"byteLength":480,"target":34962,"byteStride":12},{"buffer":0,"byteOffset":1800,"byteLength":320,"target":34962,"byteStride":8},{"buffer":0,"byteOffset":2120,"byteLength":120,"target":34963},{"buffer":0,"byteOffset":2240,"byteLength":288,"target":34962,"byteStride":12},{"buffer":0,"byteOffset":2528,"byteLength":288,"target":34962,"byteStride":12},{"buffer":0,"byteOffset":2816,"byteLength":192,"target":34962,"byteStride":8},{"buffer":0,"byteOffset":3008,"byteLength":72,"target":34963},{"buffer":0,"byteOffset":3080,"byteLength":480,"target":34962,"byteStride":12},{"buffer":0,"byteOffset":3560,"byteLength":480,"target":34962,"byteStride":12},{"buffer":0,"byteOffset":4040,"byteLength":320,"target":34962,"byteStride":8},{"buffer":0,"byteOffset":4360,"byteLength":120,"target":34963},{"buffer":0,"byteOffset":4480,"byteLength":288,"target":34962,"byteStride":12},{"buffer":0,"byteOffset":4768,"byteLength":288,"target":34962,"byteStride":12},{"buffer":0,"byteOffset":5056,"byteLength":192,"target":34962,"byteStride":8},{"buffer":0,"byteOffset":5248,"byteLength":72,"target":34963},{"buffer":0,"byteOffset":5320,"byteLength":4608,"target":34962,"byteStride":12},{"buffer":0,"byteOffset":9928,"byteLength":4608,"target":34962,"byteStride":12},{"buffer":0,"byteOffset":14536,"byteLength":3072,"target":34962,"byteStride":8},{"buffer":0,"byteOffset":17608,"byteLength":1152,"target":34963}],"buffers":[{"byteLength":18760,"uri":"data:application/octet-stream;base64,"}],"accessors":[{"bufferView":0,"componentType":5126,"count":24,"max":[0.012500000186264515,0.0625,0.012500000186264515],"min":[-0.012500000186264515,0,-0.012500000186264515],"type":"VEC3"},{"bufferView":1,"componentType":5126,"count":24,"max":[1,1,1],"min":[-1,-1,-1],"type":"VEC3"},{"bufferView":2,"componentType":5126,"count":24,"max":[0.625,0.875],"min":[0.375,0.75],"type":"VEC2"},{"bufferView":3,"componentType":5123,"count":36,"max":[23],"min":[0],"type":"SCALAR"},{"bufferView":4,"componentType":5126,"count":40,"max":[0.012500000186264515,0.0625,0.012500000186264515],"min":[-0.012500000186264515,-0.01875000074505806,-0.012500000186264515],"type":"VEC3"},{"bufferView":5,"componentType":5126,"count":40,"max":[1,1,1],"min":[-1,-1,-1],"type":"VEC3"},{"bufferView":6,"componentType":5126,"count":40,"max":[0.9125000238418579,0.7120192050933838],"min":[0.18125000596046448,0.5057692527770996],"type":"VEC2"},{"bufferView":7,"componentType":5123,"count":60,"max":[39],"min":[0],"type":"SCALAR"},{"bufferView":8,"componentType":5126,"count":24,"max":[0.04374999925494194,0.08749999850988388,0.012500000186264515],"min":[-0.04374999925494194,0,-0.012500000186264515],"type":"VEC3"},{"bufferView":9,"componentType":5126,"count":24,"max":[1,1,1],"min":[-1,-1,-1],"type":"VEC3"},{"bufferView":10,"componentType":5126,"count":24,"max":[0.5625,0.6875],"min":[0.5,0.625],"type":"VEC2"},{"bufferView":11,"componentType":5123,"count":36,"max":[23],"min":[0],"type":"SCALAR"},{"bufferView":12,"componentType":5126,"count":40,"max":[0.012500000186264515,0.0625,0.012500000186264515],"min":[-0.012500000186264515,-0.01875000074505806,-0.012500000186264515],"type":"VEC3"},{"bufferView":13,"componentType":5126,"count":40,"max":[1,1,1],"min":[-1,-1,-1],"type":"VEC3"},{"bufferView":14,"componentType":5126,"count":40,"max":[0.875,0.6995192170143127],"min":[0.1875,0.5],"type":"VEC2"},{"bufferView":15,"componentType":5123,"count":60,"max":[39],"min":[0],"type":"SCALAR"},{"bufferView":16,"componentType":5126,"count":24,"max":[0.012500000186264515,0.0625,0.012500000186264515],"min":[-0.012500000186264515,0,-0.012500000186264515],"type":"VEC3"},{"bufferView":17,"componentType":5126,"count":24,"max":[1,1,1],"min":[-1,-1,-1],"type":"VEC3"},{"bufferView":18,"componentType":5126,"count":24,"max":[0.625,0.875],"min":[0.375,0.75],"type":"VEC2"},{"bufferView":19,"componentType":5123,"count":36,"max":[23],"min":[0],"type":"SCALAR"},{"bufferView":20,"componentType":5126,"count":384,"max":[0.0625,0.08124999701976776,0.05000000074505806],"min":[-0.0625,-0.012500000186264515,-0.05000000074505806],"type":"VEC3"},{"bufferView":21,"componentType":5126,"count":384,"max":[1,1,1],"min":[-1,-1,-1],"type":"VEC3"},{"bufferView":22,"componentType":5126,"count":384,"max":[0.75,0.5],"min":[0.19984003901481628,0.125],"type":"VEC2"},{"bufferView":23,"componentType":5123,"count":576,"max":[383],"min":[0],"type":"SCALAR"}],"materials":[{"pbrMetallicRoughness":{"metallicFactor":0,"roughnessFactor":1,"baseColorTexture":{"index":0}},"alphaMode":"MASK","alphaCutoff":0.05,"doubleSided":true}],"textures":[{"sampler":0,"source":0,"name":"pixil-frame-0 (2).png"}],"samplers":[{"magFilter":9728,"minFilter":9728,"wrapS":33071,"wrapT":33071}],"images":[{"mimeType":"image/png","uri":"data:image/png;base64,"}],"meshes":[{"primitives":[{"mode":4,"attributes":{"POSITION":0,"NORMAL":1,"TEXCOORD_0":2},"indices":3,"material":0}]},{"primitives":[{"mode":4,"attributes":{"POSITION":4,"NORMAL":5,"TEXCOORD_0":6},"indices":7,"material":0}]},{"primitives":[{"mode":4,"attributes":{"POSITION":8,"NORMAL":9,"TEXCOORD_0":10},"indices":11,"material":0}]},{"primitives":[{"mode":4,"attributes":{"POSITION":12,"NORMAL":13,"TEXCOORD_0":14},"indices":15,"material":0}]},{"primitives":[{"mode":4,"attributes":{"POSITION":16,"NORMAL":17,"TEXCOORD_0":18},"indices":19,"material":0}]},{"primitives":[{"mode":4,"attributes":{"POSITION":20,"NORMAL":21,"TEXCOORD_0":22},"indices":23,"material":0}]}]}