{"asset":{"version":"2.0","generator":"Blockbench 4.12.3 glTF exporter"},"scenes":[{"nodes":[3],"name":"blockbench_export"}],"scene":0,"nodes":[{"name":"cuboid","mesh":0},{"translation":[0,0.19375000000000006,0.28125000000000006],"name":"cylinder","mesh":1},{"rotation":[0,0,0.7071067811865475,0.7071067811865476],"translation":[0.18125,0.6375000000000001,0.2812500000000001],"name":"pyramid","mesh":2},{"children":[0,1,2]}],"bufferViews":[{"buffer":0,"byteOffset":0,"byteLength":3744,"target":34962,"byteStride":12},{"buffer":0,"byteOffset":3744,"byteLength":3744,"target":34962,"byteStride":12},{"buffer":0,"byteOffset":7488,"byteLength":2496,"target":34962,"byteStride":8},{"buffer":0,"byteOffset":9984,"byteLength":936,"target":34963},{"buffer":0,"byteOffset":10920,"byteLength":1440,"target":34962,"byteStride":12},{"buffer":0,"byteOffset":12360,"byteLength":1440,"target":34962,"byteStride":12},{"buffer":0,"byteOffset":13800,"byteLength":960,"target":34962,"byteStride":8},{"buffer":0,"byteOffset":14760,"byteLength":288,"target":34963},{"buffer":0,"byteOffset":15048,"byteLength":192,"target":34962,"byteStride":12},{"buffer":0,"byteOffset":15240,"byteLength":192,"target":34962,"byteStride":12},{"buffer":0,"byteOffset":15432,"byteLength":128,"target":34962,"byteStride":8},{"buffer":0,"byteOffset":15560,"byteLength":36,"target":34963}],"buffers":[{"byteLength":15596,"uri":"data:application/octet-stream;base64,"}],"accessors":[{"bufferView":0,"componentType":5126,"count":312,"max":[0.1875,0.3125,0.4375],"min":[-0.1875,0.1875,-0.4375],"type":"VEC3"},{"bufferView":1,"componentType":5126,"count":312,"max":[1,1,1],"min":[-1,-1,-1],"type":"VEC3"},{"bufferView":2,"componentType":5126,"count":312,"max":[0.9683593511581421,0.90625],"min":[0,0],"type":"VEC2"},{"bufferView":3,"componentType":5123,"count":468,"max":[311],"min":[0],"type":"SCALAR"},{"bufferView":4,"componentType":5126,"count":120,"max":[0.00937500037252903,0.5,0.00937500037252903],"min":[-0.00937500037252903,0,-0.00937500037252903],"type":"VEC3"},{"bufferView":5,"componentType":5126,"count":120,"max":[1,1,1],"min":[-1,-1,-1],"type":"VEC3"},{"bufferView":6,"componentType":5126,"count":120,"max":[0.5406249761581421,0.5],"min":[0.02371250092983246,0],"type":"VEC2"},{"bufferView":7,"componentType":5123,"count":144,"max":[119],"min":[0],"type":"SCALAR"},{"bufferView":8,"componentType":5126,"count":16,"max":[0.04374999925494194,0.3125,0],"min":[-0.04374999925494194,0.1875,0],"type":"VEC3"},{"bufferView":9,"componentType":5126,"count":16,"max":[1,0,1],"min":[0,0,-1],"type":"VEC3"},{"bufferView":10,"componentType":5126,"count":16,"max":[0.29129379987716675,0.132435142993927],"min":[0.00937500037252903,0],"type":"VEC2"},{"bufferView":11,"componentType":5123,"count":18,"max":[15],"min":[0],"type":"SCALAR"}],"materials":[{"pbrMetallicRoughness":{"metallicFactor":0,"roughnessFactor":1,"baseColorTexture":{"index":0}},"alphaMode":"MASK","alphaCutoff":0.05,"doubleSided":true},{"pbrMetallicRoughness":{"metallicFactor":0,"roughnessFactor":1,"baseColorTexture":{"index":1}},"alphaMode":"MASK","alphaCutoff":0.05,"doubleSided":true},{"pbrMetallicRoughness":{"metallicFactor":0,"roughnessFactor":1,"baseColorTexture":{"index":2}},"alphaMode":"MASK","alphaCutoff":0.05,"doubleSided":true}],"textures":[{"sampler":0,"source":0,"name":"Sprite-0001.png"},{"sampler":1,"source":1,"name":"golf3.png"},{"sampler":2,"source":2,"name":"golf2.png"}],"samplers":[{"magFilter":9728,"minFilter":9728,"wrapS":33071,"wrapT":33071},{"magFilter":9728,"minFilter":9728,"wrapS":33071,"wrapT":33071},{"magFilter":9728,"minFilter":9728,"wrapS":33071,"wrapT":33071}],"images":[{"mimeType":"image/png","uri":"data:image/png;base64,"},{"mimeType":"image/png","uri":"data:image/png;base64,"},{"mimeType":"image/png","uri":"data:image/png;base64,"}],"meshes":[{"primitives":[{"mode":4,"attributes":{"POSITION":0,"NORMAL":1,"TEXCOORD_0":2},"indices":3,"material":0}]},{"primitives":[{"mode":4,"attributes":{"POSITION":4,"NORMAL":5,"TEXCOORD_0":6},"indices":7,"material":1}]},{"primitives":[{"mode":4,"attributes":{"POSITION":8,"NORMAL":9,"TEXCOORD_0":10},"indices":11,"material":2}]}]}